<svg xmlns="http://www.w3.org/2000/svg" viewBox="0 0 100 170">
  <rect width="100" height="170" rx="12" fill="#0a0a0a"/>
  <circle fill="#c9a84c" cx="50" cy="10" r="8"/>
  <circle fill="#c9a84c" cx="22" cy="22" r="6"/>
  <circle fill="#c9a84c" cx="78" cy="22" r="6"/>
  <circle fill="#c9a84c" cx="34" cy="16" r="5"/>
  <circle fill="#c9a84c" cx="66" cy="16" r="5"/>
  <polygon fill="#c9a84c" points="14,28 22,16 34,21 50,18 66,21 78,16 86,28 82,44 18,44"/>
  <ellipse fill="#c9a84c" cx="50" cy="50" rx="12" ry="8"/>
  <rect fill="#c9a84c" x="43" y="54" width="14" height="8" rx="2"/>
  <path fill="#c9a84c" d="M32 62 Q44 58 50 60 Q56 58 68 62 L72 95 L28 95 Z"/>
  <path fill="#c9a84c" d="M28 95 Q23 114 21 128 L79 128 Q77 114 72 95 Z"/>
  <rect fill="#c9a84c" x="16" y="128" width="68" height="7"  rx="3"/>
  <rect fill="#c9a84c" x="9"  y="135" width="82" height="7"  rx="3"/>
  <rect fill="#c9a84c" x="2"  y="142" width="96" height="12" rx="5"/>
</svg>